<svg width="43" height="43" viewBox="0 0 43 43" fill="none" xmlns="http://www.w3.org/2000/svg">
<path d="M18.8125 2.01562C17.3283 2.01562 16.125 3.21895 16.125 4.70312V6.04688H15.856L4.70312 7.39062V9.40625H38.2969V7.39062L27.144 6.04688H26.875V4.70312C26.875 3.21895 25.6717 2.01562 24.1875 2.01562H18.8125ZM18.8125 4.70312H24.1875V6.04688H18.8125V4.70312ZM6.71875 10.75L9.40625 38.9688H33.5938L36.2301 11.4219L6.71875 10.75ZM21.5 15.4531C22.3956 15.4531 22.8438 16.125 22.8438 16.125V35.6094H20.1562V16.125C20.1562 16.125 20.6044 15.4531 21.5 15.4531ZM12.7499 15.5004C13.6435 15.4379 14.1382 16.0778 14.1382 16.0778L15.4584 35.6094H12.763L11.4573 16.2641C11.4573 16.2641 11.8563 15.5629 12.7499 15.5004ZM30.2199 15.5004C31.1135 15.5629 31.5138 16.2641 31.5138 16.2641L30.2081 35.6094H27.5128L28.8329 16.0778C28.8329 16.0778 29.3263 15.4379 30.2199 15.5004Z" fill="#FFF"/>
</svg>
