<svg width="228" height="304" viewBox="0 0 228 304" fill="none" xmlns="http://www.w3.org/2000/svg">
    <path d="M60.8461 131.375H24.0297C23.7644 131.375 23.51 131.27 23.3224 131.082L5.29271 113.043C5.10529 112.855 5 112.601 5 112.336V94.5391C5 94.2739 5.10529 94.0197 5.29271 93.8321L42.2308 56.875V42.25L59.433 25.0388C60.2136 24.2579 60.2136 22.9921 59.433 22.2112L43.9368 6.70693C43.3071 6.07689 43.7533 5 44.6441 5H201.07C203.192 5 205.228 5.84342 206.728 7.3446L220.658 21.2821C222.158 22.7823 223 24.8165 223 26.9375V90.9674C223 92.9963 222.229 94.9494 220.843 96.4314L136.193 186.962C136.019 187.147 135.923 187.391 135.923 187.645V234.125C135.923 235.782 134.58 237.125 132.923 237.125H64.4616C62.8047 237.125 61.4615 235.782 61.4615 234.125V169.421C61.4615 168.91 61.6573 168.418 62.0085 168.047L146.347 78.8743C147.553 77.5992 146.649 75.5 144.894 75.5H116.818C115.46 75.5 114.16 76.0525 113.217 77.0304L60.8461 131.375Z" stroke="#C95715" stroke-width="10" fill="#C95715"/>
    <path d="M59.9969 263.215C60.9347 262.277 62.2068 261.75 63.5334 261.75H133.851C135.178 261.75 136.45 262.277 137.388 263.215L153.075 278.911C154.012 279.848 154.538 281.12 154.538 282.445V297C154.538 298.105 153.643 299 152.538 299H44.8461C43.7416 299 42.8461 298.105 42.8461 297V282.445C42.8461 281.12 43.3726 279.848 44.3097 278.911L59.9969 263.215Z" stroke="#C95715" stroke-width="10" fill="#C95715"/>
</svg>
